0
SECTION
2
HEADER
9
$INSUNITS
70
4
0
ENDSEC
0
SECTION
2
ENTITIES
0
LINE
8
OUTLINE
10
-200
20
-200
11
200
21
-200
0
LINE
8
OUTLINE
10
200
20
-200
11
200
21
200
0
LINE
8
OUTLINE
10
200
20
200
11
-200
21
200
0
LINE
8
OUTLINE
10
-200
20
200
11
-200
21
-200
0
LINE
8
STRAP_SLOTS
10
-84
20
-67
11
-56
21
-67
0
LINE
8
STRAP_SLOTS
10
-56
20
-67
11
-56
21
-63
0
LINE
8
STRAP_SLOTS
10
-56
20
-63
11
-84
21
-63
0
LINE
8
STRAP_SLOTS
10
-84
20
-63
11
-84
21
-67
0
LINE
8
STRAP_SLOTS
10
-84
20
63
11
-56
21
63
0
LINE
8
STRAP_SLOTS
10
-56
20
63
11
-56
21
67
0
LINE
8
STRAP_SLOTS
10
-56
20
67
11
-84
21
67
0
LINE
8
STRAP_SLOTS
10
-84
20
67
11
-84
21
63
0
LINE
8
STRAP_SLOTS
10
56
20
-67
11
84
21
-67
0
LINE
8
STRAP_SLOTS
10
84
20
-67
11
84
21
-63
0
LINE
8
STRAP_SLOTS
10
84
20
-63
11
56
21
-63
0
LINE
8
STRAP_SLOTS
10
56
20
-63
11
56
21
-67
0
LINE
8
STRAP_SLOTS
10
56
20
63
11
84
21
63
0
LINE
8
STRAP_SLOTS
10
84
20
63
11
84
21
67
0
LINE
8
STRAP_SLOTS
10
84
20
67
11
56
21
67
0
LINE
8
STRAP_SLOTS
10
56
20
67
11
56
21
63
0
CIRCLE
8
HOLES
10
-101.11627
20
-71.41778
40
2.7
0
CIRCLE
8
HOLES
10
-71.41778
20
-101.11627
40
2.7
0
CIRCLE
8
HOLES
10
-112.42998
20
-82.73149
40
2.7
0
CIRCLE
8
HOLES
10
-82.73149
20
-112.42998
40
2.7
0
CIRCLE
8
HOLES
10
-157.68481
20
-127.98633
40
2.7
0
CIRCLE
8
HOLES
10
-127.98633
20
-157.68481
40
2.7
0
CIRCLE
8
HOLES
10
-168.99852
20
-139.30004
40
2.7
0
CIRCLE
8
HOLES
10
-139.30004
20
-168.99852
40
2.7
0
CIRCLE
8
HOLES
10
-71.41778
20
101.11627
40
2.7
0
CIRCLE
8
HOLES
10
-101.11627
20
71.41778
40
2.7
0
CIRCLE
8
HOLES
10
-82.73149
20
112.42998
40
2.7
0
CIRCLE
8
HOLES
10
-112.42998
20
82.73149
40
2.7
0
CIRCLE
8
HOLES
10
-127.98633
20
157.68481
40
2.7
0
CIRCLE
8
HOLES
10
-157.68481
20
127.98633
40
2.7
0
CIRCLE
8
HOLES
10
-139.30004
20
168.99852
40
2.7
0
CIRCLE
8
HOLES
10
-168.99852
20
139.30004
40
2.7
0
CIRCLE
8
HOLES
10
71.41778
20
-101.11627
40
2.7
0
CIRCLE
8
HOLES
10
101.11627
20
-71.41778
40
2.7
0
CIRCLE
8
HOLES
10
82.73149
20
-112.42998
40
2.7
0
CIRCLE
8
HOLES
10
112.42998
20
-82.73149
40
2.7
0
CIRCLE
8
HOLES
10
127.98633
20
-157.68481
40
2.7
0
CIRCLE
8
HOLES
10
157.68481
20
-127.98633
40
2.7
0
CIRCLE
8
HOLES
10
139.30004
20
-168.99852
40
2.7
0
CIRCLE
8
HOLES
10
168.99852
20
-139.30004
40
2.7
0
CIRCLE
8
HOLES
10
101.11627
20
71.41778
40
2.7
0
CIRCLE
8
HOLES
10
71.41778
20
101.11627
40
2.7
0
CIRCLE
8
HOLES
10
112.42998
20
82.73149
40
2.7
0
CIRCLE
8
HOLES
10
82.73149
20
112.42998
40
2.7
0
CIRCLE
8
HOLES
10
157.68481
20
127.98633
40
2.7
0
CIRCLE
8
HOLES
10
127.98633
20
157.68481
40
2.7
0
CIRCLE
8
HOLES
10
168.99852
20
139.30004
40
2.7
0
CIRCLE
8
HOLES
10
139.30004
20
168.99852
40
2.7
0
ENDSEC
0
EOF
